<svg xmlns="http://www.w3.org/2000/svg" viewBox="0 0 180 191.25"><defs><style>.cls-1{fill:#fff;}</style></defs><title>Asset 7</title><g id="Layer_2" data-name="Layer 2"><g id="Réteg_1" data-name="Réteg 1"><root class="cls-1" d="M180,98.44h-.05c0,.94.05,1.88.05,2.81A90,90,0,0,1,2.84,123.75H8.66a84.38,84.38,0,0,0,165.72-22.5c0-.94,0-1.88-.05-2.81H135v47.81h-5.62V98.44H50.63v47.81H45V98.44H0V92.81H.05C0,91.88,0,90.94,0,90A90,90,0,0,1,177.16,67.5h-5.82A84.38,84.38,0,0,0,5.63,90c0,.94,0,1.88.05,2.81H45V50.63h5.63V92.81h78.75V50.63H135V92.81h45Z"/></g></g></svg>